<?xml version="1.0" encoding="UTF-8"?>
<svg width="500" height="500" fill="#7C3AED" xmlns="http://www.w3.org/2000/svg">
  <path d="M108.5,73.3c-12.9,2.5-31.9,9.7-41.4,15.7c-17.1,10.9-30.3,31.1-37.6,57.5c-2.6,9.5-5.6,26.9-7.1,41.1
    c-2.3,21.7-2.3,156.1,0,177.8c1.5,14.2,4.4,31.1,7.1,41.3c7.7,28.3,21.7,49.4,40.3,59.9c9.4,5.3,28.3,12.5,40.7,15.4
    c4.5,1.1,10.2,2.3,12.7,2.7c7.3,1.2,212.3,1.2,219.6,0c2.5-0.4,8.2-1.6,12.7-2.7c12.4-2.9,31.3-10.1,40.7-15.4
    c18.6-10.5,32.6-31.6,40.3-59.9c2.7-10.2,5.6-27.1,7.1-41.3c2.3-21.7,2.3-156.1,0-177.8c-1.5-14.2-4.5-31.6-7.1-41.1
    c-7.3-26.4-20.5-46.6-37.6-57.5c-9.5-6-28.5-13.2-41.4-15.7c-8.8-1.7-13.9-1.8-103.5-2C128.4,71.6,115.5,71.8,108.5,73.3z
    M290.2,120.8c8.7,3,19.6,14.4,26.3,27.3c2.3,4.4,6.4,15.9,9.2,25.4c9.1,31.1,10.3,39.7,10.3,76.5c0,33.8-0.8,41.9-5.6,60
    c-2.9,10.8-6.7,21.2-12.4,33.5c-10.5,22.8-19.9,35.7-29.9,41.1l-5.3,2.9l-31.6,0.3l-31.7,0.3l-0.3-131l-0.2-131l37.7,0.4
    C284.2,126.9,285.5,119.3,290.2,120.8z M173.1,126.9l0.1,4.9l0.1,126.7l0.1,126.8l-33.9-0.4l-33.9-0.4l-5-2.8
    c-10.5-5.7-19.9-18.6-30.6-42.1c-5.4-11.7-8.7-20.8-11.6-31.5c-4.7-17.7-5.5-25.9-5.5-59c0-35.2,1.1-43.8,9.7-74
    c2.5-8.8,6.7-20.5,9.2-25.7c6.4-13.5,16.7-24.7,25.3-27.6c4.6-1.5,6.3-1.5,40.5-1.3l35.6,0.2L173.1,126.9z"/>
  <path d="M175.5,379.2c-2.5,0.5-5.5,2.1-7.5,3.9c-3.3,3-3.8,4.2-5.8,15.1c-1.2,6.7-3.1,14.9-4.2,18.3c-1.7,5.3-1.8,7.1-0.8,11.5
    c1.3,5.7,5.5,11.4,9.9,13.4c3.1,1.4,8.9,1.6,54,1.6c48.4,0,50.8-0.1,54.7-2c8.1-4,11.2-9.3,11.2-19.5c0-6-0.5-8.4-3.1-13.7
    c-1.7-3.6-4-7.8-5.2-9.3c-3.2-4.2-9.5-8.9-14.9-11c-4.5-1.8-8.1-1.9-44-2.1C189.2,378.1,177.8,378.7,175.5,379.2z M267,394.5
    c0,0.8-8.5,10.7-11.4,13.3c-10,8.7-24.5,13-43.1,12.7c-15.5-0.3-24.5-2.8-34.5-9.6c-6.2-4.1-15-13.4-15-15.7
    C163,393.6,267,392.9,267,394.5z"/>
  <path d="M222.5,116.3c-0.4,1.6-1.7,20.9-3,42.9c-3.1,52.5-3.2,55.2-1,61.8c4.7,14.4,22.3,26.7,40.5,28.4
    c3.9,0.4,13.8-0.3,17.3-1.2c1.4-0.4,1.6-1.7,1.4-10.2l-0.2-9.8l-6.5-0.6c-13.8-1.2-23-8.4-23-18.1c0-5.1,1.4-8.9,5.2-13.9
    c9.2-12.3,14-29.8,18.2-67.1c0.6-5.5,1.5-12.4,2-15.4c0.5-3,0.7-6.2,0.5-7.1c-0.4-1.5-3.4-1.6-25.7-1.6
    C227.6,114,223.3,114.2,222.5,116.3z"/>
</svg>